<svg xmlns="http://www.w3.org/2000/svg" version="1.1" xmlns:xlink="http://www.w3.org/1999/xlink" width="1500" height="424" viewBox="0 0 1500 424"><svg xml:space="preserve" width="1500" height="424" data-version="2" data-id="lg_r9TmUoSEEnVKApmEXG" viewBox="0 0 472 424" x="0" y="0"><rect width="100%" height="100%" fill="transparent"></rect><rect width="350.19" height="131.08" x="-175.1" y="-65.54" fill="#fff" rx="0" ry="0" transform="translate(236 259.76)scale(1.3194)"></rect><path fill="#3581c4" d="M319.542 4.212H96.76c-37.796 0-68.549 30.753-68.549 68.549v274.195c0 37.796 30.753 68.549 68.549 68.549h222.783a17.137 17.137 0 0 0 17.138-17.138V124.172a17.137 17.137 0 0 0-17.138-17.137H96.76c-18.898 0-34.275-15.376-34.275-34.274S77.861 38.486 96.76 38.486h222.783a17.137 17.137 0 0 0 0-34.274M96.76 141.309h205.646V381.23H96.76c-18.898 0-34.275-15.376-34.275-34.274V132.034a68.035 68.035 0 0 0 34.275 9.275"></path><path fill="#3581c4" d="M319.542 55.623H96.76a17.137 17.137 0 0 0 0 34.275h222.783a17.137 17.137 0 0 0 0-34.275M396.66 4.212c-23.624 0-42.843 19.22-42.843 42.843v299.9c0 2.661.621 5.283 1.808 7.665l25.706 51.412a17.141 17.141 0 0 0 30.658 0l25.706-51.412a17.189 17.189 0 0 0 1.808-7.664V47.055c0-23.624-19.22-42.843-42.843-42.843m0 34.274c4.725 0 8.568 3.843 8.568 8.569V72.76h-17.137V47.055c0-4.726 3.843-8.569 8.569-8.569m0 321.563-8.569-17.138V107.035h17.137v235.876zm-282.764-81.642h137.098a17.137 17.137 0 0 0 17.137-17.137v-68.55a17.137 17.137 0 0 0-17.137-17.137H113.896a17.137 17.137 0 0 0-17.137 17.137v68.549a17.137 17.137 0 0 0 17.137 17.137m17.137-68.549h102.823v34.275H131.033zm-17.137 119.96h137.098a17.137 17.137 0 0 0 0-34.274H113.896a17.137 17.137 0 0 0 0 34.275"></path></svg></svg>