<svg xmlns="http://www.w3.org/2000/svg" version="1.1" xmlns:xlink="http://www.w3.org/1999/xlink" width="1500" height="1500" viewBox="0 0 1500 1500"><rect width="1500" height="1500" x="0" y="0" id="background" stroke="transparent" fill="#ffffff"></rect><svg xml:space="preserve" width="1000" height="1000" data-version="2" data-id="lg_r9TmUoSEEnVKApmEXG" viewBox="0 0 472 344" x="250" y="250"><rect width="100%" height="100%" fill="transparent"></rect><rect width="350.19" height="131.08" x="-175.1" y="-65.54" fill="#ffffff" rx="0" ry="0" transform="translate(236 194)scale(1.3194)"></rect><path fill="#767676" d="M67.19 296.87q-12.17 0-20.13-5.05-7.95-5.04-11.59-12.84-3.64-7.8-3.64-16.43 0-9.68 4.99-17.22 4.99-7.54 13.15-11.7 8.17-4.16 17.53-4.16 5.09 0 10.19.99t8.22 2.65q.83.52 1.04.94.2.42.31 1.56l1.14 11.54q0 .42-.47.47-.46.05-.67-.26-2.5-8.01-8.58-11.8-6.09-3.8-14.93-3.8-7.48 0-12.94 3.43-5.46 3.44-8.38 9.73-2.91 6.29-2.91 14.71 0 9.78 3.75 18 3.74 8.21 10.14 13 6.39 4.78 14.19 4.78 6.55 0 11.96-4.11 5.41-4.11 8.63-12.32.11-.42.63-.31.52.1.52.41l-1.04 11.55q-.21 1.35-.42 1.66-.21.31-1.14.73-9.36 3.85-19.55 3.85"></path><rect width="57.51" height="67.4" x="-28.75" y="-33.7" fill="none" rx="0" ry="0" transform="translate(61.08 263.67)"></rect><path fill="#767676" d="M107.75 296.55q-2.92 0-4.48-2.08-1.56-2.08-1.45-6.13l.62-57.1q0-2.49-.73-3.69-.72-1.2-2.49-1.2-1.77 0-5.2 1.56l-.21.11q-.31 0-.52-.52-.21-.52.21-.73l13.41-6.55h.21q.42 0 .78.31.37.31.37.52l-.52 65.31q0 3.12.72 4.58.73 1.45 2.29 1.45 2.6 0 6.55-4.78.11-.1.32-.1.41 0 .78.36.36.36.15.57-3.22 4.16-5.67 6.14-2.44 1.97-5.14 1.97"></path><rect width="25.55" height="76.33" x="-12.78" y="-38.16" fill="none" rx="0" ry="0" transform="translate(106.43 258.88)"></rect><path fill="#767676" d="M167.86 287.61q.1-.1.31-.1.31 0 .62.36.32.36.21.57-3.01 4.16-5.56 6.14-2.55 1.97-5.15 1.97-5.82 0-5.82-8.21l.2-12.9q-3.43 9.67-8.99 15.6-5.57 5.93-11.81 5.93-3.95 0-6.39-2.76-2.45-2.75-2.45-8.78 0-7.18 3.49-14.51 3.48-7.33 9.1-12.07 5.61-4.73 11.44-4.73 2.18 0 4.31.73 2.14.73 3.8 2.18 1.66-1.66 1.98-3.64.1-.2.78-.2.67 0 .57.2l-.21 32.97q-.1 6.03 2.91 6.03 2.6 0 6.66-4.78m-32.66 4.26q4.27 0 8.22-4.1 3.95-4.11 6.39-10.14 2.45-6.04 2.45-11.34 0-3.85-2.24-6.19-2.23-2.34-5.87-2.34-4.16 0-7.7 3.02-3.54 3.01-5.62 8.32-2.08 5.3-2.08 11.85 0 5.62 1.62 8.27 1.61 2.65 4.83 2.65"></path><rect width="46.04" height="43.78" x="-23.02" y="-21.89" fill="none" rx="0" ry="0" transform="translate(146.55 275.58)"></rect><path fill="#767676" d="M182.83 296.76q-4.57 0-8.11-1.97-3.53-1.98-3.53-4.68 0-1.36.88-2.03.88-.68 2.13-.68 1.15 0 1.98.68.83.67 1.87 2.03 1.77 2.18 3.38 3.27 1.61 1.09 4.42 1.09 3.02 0 4.58-1.56t1.56-4.47q-.11-3.85-2.55-6.45-2.45-2.6-7.23-5.61-4.78-3.02-7.23-5.62-2.44-2.6-2.44-6.34 0-4.47 4.05-7.23 4.06-2.76 9.16-2.76 4.16 0 7.22 1.51 3.07 1.51 3.07 3.8 0 1.25-.83 1.97-.83.73-2.08.73-1.35 0-2.24-.57-.88-.57-2.23-1.92-1.56-1.56-3.02-2.4-1.45-.83-3.74-.83t-3.59 1.04q-1.3 1.04-1.3 3.23 0 3.01 2.34 5.46 2.34 2.44 6.92 5.56 5.2 3.64 7.8 6.34 2.6 2.71 2.6 6.56 0 2.91-1.72 5.66-1.72 2.76-4.89 4.48-3.17 1.71-7.23 1.71"></path><rect width="25.48" height="42.33" x="-12.74" y="-21.16" fill="none" rx="0" ry="0" transform="translate(184.43 276.1)"></rect><path fill="#767676" d="M215.59 296.76q-4.57 0-8.11-1.97-3.53-1.98-3.53-4.68 0-1.36.88-2.03.88-.68 2.13-.68 1.15 0 1.98.68.83.67 1.87 2.03 1.77 2.18 3.38 3.27 1.61 1.09 4.42 1.09 3.02 0 4.58-1.56t1.56-4.47q-.11-3.85-2.55-6.45-2.45-2.6-7.23-5.61-4.78-3.02-7.23-5.62-2.44-2.6-2.44-6.34 0-4.47 4.05-7.23 4.06-2.76 9.16-2.76 4.16 0 7.22 1.51 3.07 1.51 3.07 3.8 0 1.25-.83 1.97-.83.73-2.08.73-1.35 0-2.24-.57-.88-.57-2.23-1.92-1.56-1.56-3.02-2.4-1.45-.83-3.74-.83t-3.59 1.04q-1.3 1.04-1.3 3.23 0 3.01 2.34 5.46 2.34 2.44 6.92 5.56 5.2 3.64 7.8 6.34 2.6 2.71 2.6 6.56 0 2.91-1.72 5.66-1.72 2.76-4.89 4.48-3.17 1.71-7.23 1.71"></path><rect width="25.48" height="42.33" x="-12.74" y="-21.16" fill="none" rx="0" ry="0" transform="translate(217.19 276.1)"></rect><path fill="#767676" d="M283.71 287.61q.11-.1.32-.1.41 0 .78.36.36.36.15.57-3.33 4.27-5.77 6.19-2.44 1.92-5.04 1.92-5.93 0-5.72-8.21l.1-18.51q.1-11.65-6.24-11.65-3.95 0-7.18 4.26-3.22 4.27-5.2 12.59-1.97 8.32-2.18 19.86 0 1.56-3.33 1.56-1.56 0-2.08-.16-.52-.15-.62-.46l.1-2.5.11-5.41.72-56.68q0-4.89-3.43-4.89-1.87 0-5.3 1.56h-.21q-.42 0-.57-.46-.16-.47.15-.68l13.63-6.55h.21q.31 0 .72.31.42.31.42.52l-.42 56.37q1.98-10.92 6.5-17.11 4.53-6.19 10.98-6.19 4.57 0 6.81 3.33 2.23 3.33 2.13 10.4l-.1 18.51q0 3.12.72 4.58.73 1.45 2.29 1.45 2.6 0 6.55-4.78"></path><rect width="52.09" height="76.33" x="-26.04" y="-38.16" fill="none" rx="0" ry="0" transform="translate(259.56 258.88)"></rect><path fill="#767676" d="M305.35 297.07q-5.41 0-9.42-2.65-4-2.65-6.18-7.23-2.19-4.57-2.19-10.29 0-6.45 2.6-11.65t7.23-8.16q4.63-2.97 10.56-2.97 7.9 0 12.84 5.25 4.94 5.26 4.94 14.51 0 7.07-2.81 12.38-2.81 5.3-7.49 8.06-4.68 2.75-10.08 2.75m3.12-2.6q5.09 0 8.42-4.26t3.33-11.54q0-5.62-1.93-10.72-1.92-5.09-5.4-8.21-3.49-3.12-7.86-3.12-5.09 0-8.52 4.16-3.44 4.16-3.44 11.44 0 5.51 1.98 10.66t5.51 8.37q3.54 3.22 7.91 3.22"></path><rect width="38.17" height="42.95" x="-19.09" y="-21.48" fill="none" rx="0" ry="0" transform="translate(307.14 276.1)"></rect><path fill="#767676" d="M404.98 287.61q.1-.1.31-.1.42 0 .78.36.36.36.16.57-3.33 4.27-5.78 6.19-2.44 1.92-5.04 1.92-5.82 0-5.82-8.21l.1-18.51q0-11.65-5.82-11.65-3.75 0-6.92 4.42t-5.04 12.74q-1.88 8.32-1.88 19.55 0 .73-.88 1.14-.88.42-2.44.42t-2.08-.16q-.52-.15-.63-.46 0-.42.11-2.34.1-1.93.1-5.57l.1-18.09q-.1-11.65-5.72-11.65-3.64 0-6.76 4.37-3.12 4.36-5.04 12.53-1.92 8.16-1.92 18.98v.83q0 .73-.89 1.14-.88.42-2.55.42-1.45 0-1.97-.16-.52-.15-.73-.46l.31-7.39.21-23.71q0-3.12-.83-4.63-.83-1.51-2.29-1.51-2.29 0-6.97 5-.21.2-.41.2-.32 0-.58-.36-.26-.36-.15-.68 3.12-4.16 5.82-6.18 2.71-2.03 5.62-2.03t4.21 1.97q1.3 1.98 1.3 6.04v13.83q1.87-10.51 6.19-16.38 4.31-5.88 10.45-5.88 4.37 0 6.5 3.28 2.13 3.27 2.03 10.45v8.74q1.87-10.72 6.19-16.59 4.31-5.88 10.45-5.88 4.47 0 6.55 3.33t2.18 10.4l-.1 18.51q0 6.03 2.91 6.03 2.6 0 6.66-4.78"></path><rect width="78.41" height="42.43" x="-39.21" y="-21.21" fill="none" rx="0" ry="0" transform="translate(367.66 275.83)"></rect><path fill="#767676" d="M441.59 289.9q.31 0 .67.31.37.31.16.62-6.87 6.04-15.29 6.04-5.82 0-9.98-2.71-4.16-2.7-6.24-7.17-2.08-4.48-2.08-9.57 0-6.03 2.8-11.39 2.81-5.36 7.75-8.63 4.94-3.28 11.18-3.28 4.16 0 6.5 1.51t2.34 4.11q-.1 4.57-7.07 8.37-6.97 3.8-17.16 5.25.21 9.05 4.21 14.51 4.01 5.46 11.39 5.46 2.7 0 5.51-.83 2.81-.83 5.1-2.6Zm-15.5-32.97q-5.3 0-8.01 4.16-2.7 4.16-2.91 10.82 16.74-2.81 16.74-10.72 0-2.08-1.56-3.17-1.56-1.09-4.26-1.09"></path><rect width="33.73" height="42.75" x="-16.87" y="-21.38" fill="none" rx="0" ry="0" transform="translate(426.2 276)"></rect><path fill="#767676" d="m24.25 330.71 1.08-2.29q.06-.12.07-.18v-.23q0-.09-.15-.19l-.33-.2q-.17-.1-.33-.22-.15-.11-.15-.25 0-.39.29-.64.29-.24.71-.38.43-.13.92-.18.49-.05.9-.05.96 0 1.47.29.52.29.52.96 0 .17-.1.26t-.26.15q-.16.06-.36.1-.2.05-.4.14-.2.09-.37.23-.18.14-.3.39l-3.65 7.9q-.43.94-.86 1.59-.44.65-.87 1.05-.44.41-.87.59t-.84.18q-.52 0-.96-.23-.45-.23-.78-.6t-.52-.83q-.19-.45-.19-.9 0-.58.13-.97.13-.4.33-.63.21-.24.47-.34.26-.11.53-.11.33 0 .55.16.23.16.38.39.14.23.23.5.1.28.17.51.07.23.14.39.06.15.16.15.07 0 .16-.09.1-.1.24-.33.13-.23.3-.61.18-.37.41-.91l-3.7-6.86q-.14-.26-.32-.4-.17-.14-.35-.22-.18-.07-.35-.12-.17-.04-.31-.09-.13-.06-.21-.15-.08-.1-.08-.29 0-.27.14-.47.14-.2.38-.34t.57-.22q.33-.09.71-.13.37-.05.78-.07.41-.02.82-.02.84 0 1.46.05t1.04.19q.41.14.61.38.2.25.2.63 0 .14-.13.24-.13.1-.28.19-.16.09-.29.17-.13.09-.13.2 0 .02.01.06.04.08.08.17.05.08.13.24Z"></path><rect width="12.45" height="13.83" x="-6.22" y="-6.92" fill="none" rx="0" ry="0" transform="translate(23.52 333.31)"></rect><path fill="#767676" d="M38.42 335.58q-.87 0-1.6-.21-.73-.2-1.31-.56-.59-.35-1.03-.84-.43-.48-.73-1.04-.29-.56-.44-1.17-.14-.61-.14-1.21 0-.63.15-1.23.16-.61.48-1.15.32-.54.79-.99.48-.46 1.12-.79.64-.33 1.44-.51.81-.19 1.77-.19.85 0 1.56.19.71.19 1.28.52.57.34 1 .79.43.45.71.99.29.53.43 1.13.14.59.14 1.19 0 .62-.15 1.25-.15.62-.47 1.18-.31.57-.78 1.05-.46.48-1.09.84-.63.35-1.41.56-.78.2-1.72.2m.33-1.88q.24 0 .4-.14.17-.14.27-.41.1-.28.15-.66.04-.38.04-.86 0-.42-.01-.88 0-.47-.03-.92-.03-.45-.1-.86-.06-.41-.18-.72-.12-.32-.31-.5-.18-.19-.44-.19t-.44.15q-.18.14-.3.4-.11.25-.17.61-.05.36-.05.79 0 .41.01.87.02.47.06.94.04.46.13.9.08.43.21.76t.31.52q.19.2.45.2"></path><rect width="10.87" height="9.89" x="-5.43" y="-4.95" fill="none" rx="0" ry="0" transform="translate(39.1 331.13)"></rect><path fill="#767676" d="M56.59 328.72q0-.3-.08-.47-.08-.17-.2-.25-.12-.08-.26-.12-.14-.03-.26-.07-.12-.03-.21-.1-.08-.07-.08-.23 0-.84.87-1.21.86-.37 2.5-.37.55 0 .92.1.37.11.62.29.24.18.38.44.13.26.2.57.06.31.07.66.01.35.01.73v3.93q0 .29.08.45.07.16.2.25.12.08.25.11.14.03.26.07.12.03.2.1.07.07.07.23 0 .84-.84 1.21-.85.37-2.42.37-.39 0-.69-.06-.3-.06-.53-.15-.22-.1-.38-.22t-.27-.25q-.26-.3-.32-.68-.38.43-.9.77-.22.14-.5.28-.28.13-.61.24-.33.11-.71.17-.39.07-.82.07-.81 0-1.39-.2-.59-.21-1-.54-.4-.34-.65-.79-.25-.44-.39-.93-.14-.49-.19-1-.04-.5-.04-.95v-2.41q0-.31-.08-.48-.08-.17-.21-.27-.12-.09-.26-.12t-.27-.07q-.12-.04-.2-.11-.08-.07-.08-.23 0-.84.86-1.21.87-.37 2.5-.37.72 0 1.16.18.43.17.66.48.22.3.29.72.06.42.06.9v3.62q0 .45.07.81.07.35.24.6.16.25.43.38.28.13.68.13.25 0 .48-.08.23-.08.4-.23.17-.15.26-.35.1-.2.1-.44Z"></path><rect width="13.75" height="9.68" x="-6.88" y="-4.84" fill="none" rx="0" ry="0" transform="translate(55.75 331.24)"></rect><path fill="#767676" d="M72.15 332.57q0 .3.08.47.08.17.2.26.12.08.26.11.14.04.26.07.12.04.2.11.08.07.08.23 0 .83-.86 1.2t-2.5.37q-.79 0-1.4-.08-.6-.09-1.02-.29-.42-.19-.64-.49-.21-.29-.21-.71 0-.16.08-.23t.2-.11q.11-.03.25-.06t.26-.12q.12-.08.2-.24.08-.16.08-.46v-3.91q0-.29-.08-.45-.08-.16-.2-.25-.12-.08-.26-.11t-.25-.07q-.12-.03-.2-.1-.08-.07-.08-.23 0-.42.21-.72.22-.29.64-.49.42-.19 1.02-.28.61-.09 1.4-.09.73 0 1.16.14.44.15.69.43.2-.14.42-.26.22-.12.47-.21.25-.09.54-.14.3-.05.65-.05.44 0 .84.09.41.09.73.3.31.21.5.54.18.33.18.82 0 .33-.11.63-.11.31-.32.55-.22.24-.54.38-.33.15-.75.15-.43 0-.67-.12-.24-.13-.37-.31-.14-.18-.2-.4-.06-.22-.13-.4-.07-.18-.18-.31-.12-.12-.34-.12-.23 0-.3.05-.08.06-.08.16 0 .13.05.34.06.2.06.5Z"></path><rect width="9.45" height="9.58" x="-4.72" y="-4.79" fill="none" rx="0" ry="0" transform="translate(71.82 331.1)"></rect><path fill="#767676" d="M93.45 335.58q-.87 0-1.6-.21-.73-.2-1.31-.56-.59-.35-1.03-.84-.44-.48-.73-1.04t-.44-1.17q-.14-.61-.14-1.21 0-.63.15-1.23.16-.61.48-1.15.32-.54.79-.99.48-.46 1.12-.79.64-.33 1.44-.51.81-.19 1.77-.19.85 0 1.56.19.71.19 1.28.52.57.34 1 .79.42.45.71.99.29.53.43 1.13.14.59.14 1.19 0 .62-.15 1.25-.16.62-.47 1.18-.31.57-.78 1.05-.47.48-1.09.84-.63.35-1.41.56-.79.2-1.72.2m.33-1.88q.24 0 .4-.14.17-.14.27-.41.1-.28.15-.66.04-.38.04-.86 0-.42-.01-.88 0-.47-.03-.92-.03-.45-.1-.86-.06-.41-.19-.72-.12-.32-.3-.5-.18-.19-.45-.19-.25 0-.43.15-.18.14-.3.4-.12.25-.17.61-.06.36-.06.79 0 .41.02.87.01.47.06.94.04.46.13.9.08.43.21.76t.31.52q.19.2.45.2"></path><rect width="10.87" height="9.89" x="-5.43" y="-4.95" fill="none" rx="0" ry="0" transform="translate(94.13 331.13)"></rect><path fill="#767676" d="M118.6 327.18q0 .11-.08.21-.08.09-.21.18-.12.09-.28.17l-.3.18q-.14.08-.26.18-.13.09-.18.21l-3.75 7.03q-.05.08-.13.12-.09.05-.17.05-.17 0-.28-.17l-1.99-3.5-2.1 3.5q-.05.08-.14.12-.08.05-.17.05-.17 0-.26-.17l-3.69-6.6q-.16-.28-.34-.47-.19-.19-.37-.31-.19-.12-.36-.2-.17-.08-.3-.16-.13-.08-.21-.17-.09-.09-.09-.24 0-.41.24-.66.24-.25.7-.39.46-.14 1.12-.19.67-.05 1.53-.05.25 0 .59.02.34.03.7.08.35.05.7.14.35.09.62.23.27.15.44.35.17.2.17.47 0 .23-.1.36-.1.12-.22.2-.12.08-.22.15-.1.07-.1.2 0 .09.06.21l.95 2.02.94-2.02q.03-.05.03-.11 0-.13-.13-.23l-.29-.2q-.16-.11-.29-.25-.13-.13-.13-.34 0-.41.13-.66.12-.25.38-.39.26-.13.66-.18.4-.05.94-.05.42 0 .75.06.32.05.54.19.22.15.34.4.11.25.11.64-.26.21-.45.4-.17.17-.3.35-.14.17-.14.3 0 .05.01.07l1.14 2.02 1.03-2.02q.03-.05.03-.11 0-.12-.13-.22-.14-.09-.29-.2-.15-.11-.28-.24-.14-.14-.14-.35 0-.38.14-.63.14-.26.42-.4.27-.14.68-.2.41-.06.95-.06.38 0 .7.04.33.03.57.16.24.13.39.38.14.26.17.7"></path><rect width="15.66" height="9.61" x="-7.83" y="-4.8" fill="none" rx="0" ry="0" transform="translate(111.27 331.2)"></rect><path fill="#767676" d="M128.43 332.57q0 .3.08.47.08.17.2.26.12.08.26.11.14.04.26.07.12.04.21.11.08.07.08.23 0 .83-.87 1.2-.86.37-2.5.37-.79 0-1.39-.08-.61-.09-1.03-.29-.42-.19-.63-.49-.22-.29-.22-.71 0-.16.08-.23t.2-.11q.12-.03.25-.06.14-.03.26-.12.12-.08.2-.24.08-.16.08-.46v-3.91q0-.29-.08-.45-.08-.16-.2-.25-.12-.08-.26-.11-.13-.03-.25-.07-.12-.03-.2-.1-.08-.07-.08-.23 0-.42.22-.72.21-.29.63-.49.42-.19 1.03-.28.6-.09 1.39-.09.72 0 1.15.12.42.12.66.27.27.18.37.39.38-.27.91-.49.45-.19 1.11-.35.65-.15 1.53-.15.81 0 1.39.2.58.2.99.54.4.34.65.79t.39.94q.13.5.18 1 .05.5.05.95v2.43q0 .3.08.48.08.17.2.26.13.09.27.13.14.03.27.07.12.04.2.11.09.07.09.23 0 .83-.87 1.2-.86.37-2.49.37-.79 0-1.4-.08-.61-.09-1.02-.29-.42-.19-.64-.49-.21-.29-.21-.71 0-.16.08-.23t.2-.11q.13-.03.27-.06t.26-.12q.12-.08.2-.24.09-.16.09-.46v-3.12q0-.46-.07-.81-.07-.36-.24-.6-.16-.25-.43-.38-.28-.13-.68-.13-.25 0-.48.09-.23.08-.4.23-.17.15-.26.36-.1.21-.1.45Z"></path><rect width="13.76" height="9.7" x="-6.88" y="-4.85" fill="none" rx="0" ry="0" transform="translate(130.26 331.04)"></rect><path fill="#767676" d="M153.83 325.69q1.09 0 1.86.24.78.24 1.27.65.5.41.72.96.23.55.23 1.17 0 .25-.08.45t-.22.34q-.13.14-.32.21-.19.07-.41.07-.19 0-.39-.06-.2-.07-.38-.21-.17-.15-.31-.39-.14-.23-.21-.57-.06-.24-.18-.42t-.27-.31q-.15-.13-.33-.19-.17-.07-.35-.07-.32 0-.55.14-.23.13-.38.38t-.23.62q-.07.36-.07.81 0 1.76.53 2.61.53.84 1.7.84.34 0 .69-.09.35-.09.65-.2.3-.11.52-.2.22-.09.3-.09.17 0 .27.14.09.14.09.32v.11q0 .06-.03.11-.21.54-.6 1-.39.45-.92.8-.54.34-1.22.53-.68.19-1.48.19-.82 0-1.5-.2-.69-.19-1.23-.54-.55-.35-.95-.82-.41-.46-.68-1.02-.28-.55-.41-1.15-.14-.61-.14-1.22 0-.63.14-1.24t.42-1.16q.27-.55.69-1.01.42-.47.98-.81.55-.34 1.25-.53.69-.19 1.53-.19"></path><rect width="9.16" height="9.89" x="-4.58" y="-4.95" fill="none" rx="0" ry="0" transform="translate(153.9 331.13)"></rect><path fill="#767676" d="M168.15 332.57q0 .3.08.47.08.17.2.26.11.08.26.11.14.04.26.07.11.04.19.11t.08.23q0 .83-.86 1.2t-2.5.37q-.78 0-1.39-.08-.61-.09-1.03-.29-.41-.19-.63-.49-.21-.29-.21-.71 0-.16.07-.23.08-.07.2-.11.12-.03.26-.06.13-.03.25-.12.12-.08.2-.24.08-.16.08-.46v-8.23q0-.3-.08-.46-.08-.15-.2-.24-.12-.08-.25-.11-.14-.03-.26-.07-.12-.03-.2-.1-.07-.07-.07-.24 0-.41.21-.71.22-.3.63-.49.42-.19 1.03-.28.61-.09 1.39-.09.79 0 1.25.08.45.08.68.28.23.19.29.52.07.33.07.83Z"></path><rect width="6.62" height="13.81" x="-3.31" y="-6.91" fill="none" rx="0" ry="0" transform="translate(166.41 328.99)"></rect><path fill="#767676" d="M178.91 333.89q.24 0 .39-.07.15-.08.23-.22.08-.15.1-.36.03-.2.03-.47 0-.23-.01-.58t-.01-.69q-.02-.39-.02-.82l-.2-.02q-.09-.01-.18-.01-.37 0-.62.15-.26.15-.41.42-.15.26-.22.63-.06.36-.06.78 0 .26.03.49.03.23.13.4t.3.27q.19.1.52.1m3.53 1.5q-.38 0-.75-.04t-.7-.16q-.33-.13-.61-.36-.28-.23-.48-.62-.15.34-.47.6-.33.25-.74.43-.41.17-.87.25-.46.09-.88.09-.74 0-1.29-.18-.56-.17-.94-.5-.38-.33-.57-.78-.19-.45-.19-1.02 0-.67.22-1.26.22-.6.76-1.05.54-.44 1.44-.7.9-.26 2.26-.26h1q0-.82-.05-1.35-.06-.53-.18-.85-.11-.31-.29-.44-.18-.12-.42-.12-.28 0-.47.16-.19.17-.3.49-.11.32-.16.77t-.05 1.02q-.31 0-.66-.01-.35-.01-.69-.05-.34-.05-.64-.14-.31-.09-.54-.25-.24-.16-.38-.4-.14-.24-.14-.58 0-.49.26-.92.25-.43.77-.76.53-.32 1.33-.52.81-.19 1.92-.19 1.3 0 2.24.26.93.27 1.54.79.6.53.89 1.33.29.81.29 1.88v2.59q0 .32.08.5.09.17.21.26t.27.13q.14.04.26.08t.21.11q.08.07.08.23 0 .73-.65 1.14-.66.4-1.92.4"></path><rect width="11.06" height="9.89" x="-5.53" y="-4.95" fill="none" rx="0" ry="0" transform="translate(179.98 331.13)"></rect><path fill="#767676" d="M195.02 327.61q0-.17-.3-.31-.31-.14-.94-.14-.32 0-.52.04-.21.03-.32.1-.12.07-.16.16-.04.1-.04.22 0 .24.23.42.24.18.62.35.39.17.88.34t1 .38q.51.22 1 .5.5.28.88.67.38.38.62.89.23.52.23 1.19 0 .83-.37 1.42-.38.6-1 .99-.61.38-1.4.56-.79.19-1.61.19-.82 0-1.62-.18-.79-.17-1.42-.48-.62-.3-1-.73-.38-.44-.38-.96 0-.3.09-.54.1-.23.26-.38.15-.15.36-.22.2-.07.42-.07.36 0 .58.08.23.08.37.21.15.12.23.29.09.16.17.34.08.18.18.34.09.17.25.29.17.13.42.21.25.08.64.08.62 0 .92-.11.29-.11.29-.43 0-.12-.21-.23-.22-.11-.57-.24-.35-.12-.8-.28-.46-.15-.93-.36-.47-.21-.92-.48-.45-.28-.81-.64-.35-.36-.56-.83-.22-.47-.22-1.06 0-.65.16-1.17.16-.52.45-.91.29-.39.69-.66.41-.27.88-.44.48-.18 1.01-.25.54-.08 1.1-.08.98 0 1.67.18.7.19 1.15.47.45.29.66.64.21.36.21.7 0 .24-.1.46-.09.22-.28.38-.19.16-.47.25-.27.1-.62.1-.39 0-.65-.05-.25-.04-.4-.12-.15-.07-.21-.18-.06-.11-.06-.24t.05-.2q.04-.06.09-.12.05-.07.09-.14.04-.07.04-.21"></path><rect width="8.8" height="9.89" x="-4.4" y="-4.95" fill="none" rx="0" ry="0" transform="translate(194.3 331.13)"></rect><path fill="#767676" d="M208.47 327.61q0-.17-.31-.31-.31-.14-.93-.14-.33 0-.53.04-.2.03-.32.1-.11.07-.15.16-.04.1-.04.22 0 .24.23.42t.62.35q.38.17.87.34t1.01.38q.51.22 1 .5t.88.67q.38.38.61.89.24.52.24 1.19 0 .83-.38 1.42-.38.6-.99.99-.62.38-1.4.56-.79.19-1.61.19-.83 0-1.62-.18-.8-.17-1.42-.48-.62-.3-1-.73-.38-.44-.38-.96 0-.3.09-.54.1-.23.25-.38.16-.15.37-.22.2-.07.42-.07.35 0 .58.08.23.08.37.21.14.12.23.29.09.16.17.34.08.18.17.34.1.17.26.29.16.13.41.21.26.08.64.08.63 0 .92-.11.3-.11.3-.43 0-.12-.22-.23-.21-.11-.56-.24l-.81-.28q-.45-.15-.92-.36-.47-.21-.92-.48-.46-.28-.81-.64-.35-.36-.57-.83-.21-.47-.21-1.06 0-.65.16-1.17.16-.52.45-.91.29-.39.69-.66.4-.27.88-.44.48-.18 1.01-.25.53-.08 1.1-.08.97 0 1.67.18.69.19 1.14.47.45.29.67.64.21.36.21.7 0 .24-.1.46-.1.22-.29.38-.19.16-.46.25-.27.1-.62.1-.4 0-.65-.05-.25-.04-.4-.12-.15-.07-.21-.18-.06-.11-.06-.24t.04-.2q.05-.06.09-.12l.1-.14q.04-.07.04-.21"></path><rect width="8.8" height="9.89" x="-4.4" y="-4.95" fill="none" rx="0" ry="0" transform="translate(207.75 331.13)"></rect><path fill="#767676" d="M225.11 323.38q0-.36.13-.64.12-.27.33-.47.2-.21.46-.34.26-.14.52-.22.26-.08.51-.11t.43-.03q.2 0 .45.03t.52.11q.26.08.52.22.25.13.45.34.2.2.33.47.12.28.12.64t-.12.64q-.13.28-.33.48-.2.19-.45.33-.26.13-.52.21-.27.09-.52.12t-.45.03q-.18 0-.43-.03t-.51-.12q-.26-.08-.52-.21-.26-.14-.46-.33-.21-.2-.33-.48-.13-.27-.13-.64m4.54 9.22q0 .3.08.46.08.16.2.24.12.09.26.12t.26.06q.12.04.2.11.08.07.08.23 0 .83-.86 1.2-.87.37-2.5.37-.79 0-1.4-.08-.61-.09-1.02-.29-.42-.19-.64-.49-.21-.29-.21-.71 0-.16.08-.23t.2-.11q.11-.03.25-.06t.26-.12q.12-.08.2-.24.08-.16.08-.46v-3.91q0-.29-.08-.45-.08-.16-.2-.25-.12-.08-.26-.11t-.25-.07q-.12-.03-.2-.1-.08-.07-.08-.23 0-.42.21-.72.22-.29.64-.49.41-.19 1.02-.28.61-.09 1.4-.09.79 0 1.25.08.45.08.68.28.23.19.29.52.06.33.06.83Z"></path><rect width="6.63" height="13.82" x="-3.31" y="-6.91" fill="none" rx="0" ry="0" transform="translate(227.91 328.98)"></rect><path fill="#767676" d="M241.03 332.57q0 .3.08.47.08.17.2.26.12.08.26.11.14.04.26.07.12.04.2.11.08.07.08.23 0 .83-.86 1.2t-2.5.37q-.79 0-1.4-.08-.61-.09-1.02-.29-.42-.19-.64-.49-.21-.29-.21-.71 0-.16.08-.23t.2-.11q.11-.03.25-.06t.26-.12q.12-.08.2-.24.08-.16.08-.46v-3.91q0-.29-.08-.45-.08-.16-.2-.25-.12-.08-.26-.11t-.25-.07q-.12-.03-.2-.1-.08-.07-.08-.23 0-.42.21-.72.22-.29.64-.49.41-.19 1.02-.28.61-.09 1.4-.09.72 0 1.14.12.43.12.66.27.27.18.38.39.38-.27.91-.49.45-.19 1.1-.35.66-.15 1.54-.15.81 0 1.39.2.58.2.99.54.4.34.65.79t.39.94q.13.5.18 1 .05.5.05.95v2.43q0 .3.08.48.08.17.2.26.13.09.27.13.14.03.27.07.12.04.2.11.08.07.08.23 0 .83-.86 1.2t-2.49.37q-.79 0-1.4-.08-.61-.09-1.03-.29-.41-.19-.63-.49-.22-.29-.22-.71 0-.16.08-.23.09-.07.21-.11.12-.03.26-.06t.27-.12q.12-.08.2-.24.08-.16.08-.46v-3.12q0-.46-.07-.81-.07-.36-.23-.6-.17-.25-.44-.38t-.67-.13q-.26 0-.48.09-.23.08-.4.23-.17.15-.27.36t-.1.45Z"></path><rect width="13.75" height="9.7" x="-6.88" y="-4.85" fill="none" rx="0" ry="0" transform="translate(242.85 331.04)"></rect><path fill="#767676" d="m268.38 330.71 1.07-2.29q.06-.12.07-.18.01-.06.01-.13v-.1q0-.09-.15-.19l-.33-.2q-.18-.1-.33-.22-.15-.11-.15-.25 0-.39.28-.64.29-.24.72-.38.42-.13.91-.18.5-.05.91-.05.95 0 1.46.29.52.29.52.96 0 .17-.1.26t-.26.15q-.16.06-.36.1-.2.05-.4.14-.2.09-.37.23-.18.14-.3.39l-3.64 7.9q-.44.94-.87 1.59-.44.65-.87 1.05-.44.41-.87.59t-.84.18q-.52 0-.96-.23-.45-.23-.78-.6t-.52-.83q-.19-.45-.19-.9 0-.58.13-.97.13-.4.33-.63.21-.24.47-.34.26-.11.53-.11.33 0 .55.16.23.16.38.39.14.23.24.5.09.28.16.51.07.23.14.39.07.15.16.15.07 0 .17-.09.09-.1.23-.33.13-.23.3-.61.18-.37.41-.91l-3.7-6.86q-.14-.26-.32-.4-.17-.14-.35-.22-.18-.07-.35-.12-.17-.04-.3-.09-.14-.06-.22-.15-.08-.1-.08-.29 0-.27.14-.47.14-.2.38-.34t.57-.22q.33-.09.71-.13.37-.05.78-.07.42-.02.83-.02.83 0 1.45.05.63.05 1.04.19.41.14.61.38.21.25.21.63 0 .14-.14.24-.13.1-.28.19-.16.09-.29.17-.13.09-.13.2 0 .02.02.06.03.08.08.17l.12.24Z"></path><rect width="12.45" height="13.83" x="-6.22" y="-6.92" fill="none" rx="0" ry="0" transform="translate(267.64 333.31)"></rect><path fill="#767676" d="M282.54 335.58q-.87 0-1.6-.21-.73-.2-1.31-.56-.58-.35-1.02-.84-.44-.48-.74-1.04-.29-.56-.44-1.17-.14-.61-.14-1.21 0-.63.16-1.23.15-.61.47-1.15.32-.54.8-.99.47-.46 1.11-.79.64-.33 1.45-.51.8-.19 1.76-.19.85 0 1.56.19.71.19 1.28.52.57.34 1 .79.43.45.71.99.29.53.43 1.13.14.59.14 1.19 0 .62-.15 1.25-.15.62-.46 1.18-.32.57-.78 1.05-.47.48-1.1.84-.63.35-1.41.56-.78.2-1.72.2m.33-1.88q.24 0 .41-.14.16-.14.26-.41.11-.28.15-.66.04-.38.04-.86v-.88q-.01-.47-.04-.92-.03-.45-.1-.86-.06-.41-.18-.72-.12-.32-.31-.5-.18-.19-.44-.19t-.44.15q-.18.14-.3.4-.11.25-.17.61-.05.36-.05.79 0 .41.01.87.02.47.06.94.04.46.13.9.08.43.21.76t.32.52q.18.2.44.2"></path><rect width="10.87" height="9.89" x="-5.43" y="-4.95" fill="none" rx="0" ry="0" transform="translate(283.22 331.13)"></rect><path fill="#767676" d="M300.71 328.72q0-.3-.08-.47-.08-.17-.2-.25-.12-.08-.26-.12-.14-.03-.26-.07-.12-.03-.2-.1-.08-.07-.08-.23 0-.84.86-1.21t2.5-.37q.55 0 .92.1.37.11.62.29.24.18.38.44t.2.57q.06.31.07.66.01.35.01.73v3.93q0 .29.08.45.08.16.2.25.12.08.25.11.14.03.26.07.12.03.2.1.07.07.07.23 0 .84-.84 1.21-.85.37-2.42.37-.39 0-.69-.06-.3-.06-.53-.15-.22-.1-.38-.22t-.27-.25q-.26-.3-.32-.68-.38.43-.9.77-.22.14-.5.28-.28.13-.61.24-.33.11-.71.17-.39.07-.82.07-.81 0-1.39-.2-.59-.21-.99-.54-.41-.34-.66-.79-.25-.44-.39-.93-.14-.49-.18-1-.05-.5-.05-.95v-2.41q0-.31-.08-.48-.08-.17-.21-.27-.12-.09-.26-.12t-.27-.07q-.12-.04-.2-.11-.08-.07-.08-.23 0-.84.86-1.21.87-.37 2.5-.37.73 0 1.16.18.43.17.66.48.22.3.29.72.07.42.07.9v3.62q0 .45.07.81.07.35.23.6t.44.38q.27.13.67.13.26 0 .48-.08.23-.08.4-.23.17-.15.27-.35.09-.2.09-.44Z"></path><rect width="13.75" height="9.68" x="-6.88" y="-4.84" fill="none" rx="0" ry="0" transform="translate(299.87 331.24)"></rect><path fill="#767676" d="M316.27 332.57q0 .3.08.47.08.17.2.26.12.08.26.11.14.04.26.07.12.04.21.11.08.07.08.23 0 .83-.87 1.2-.86.37-2.5.37-.79 0-1.39-.08-.61-.09-1.03-.29-.42-.19-.63-.49-.22-.29-.22-.71 0-.16.08-.23t.2-.11q.12-.03.25-.06.14-.03.26-.12.12-.08.2-.24.08-.16.08-.46v-3.91q0-.29-.08-.45-.08-.16-.2-.25-.12-.08-.26-.11-.13-.03-.25-.07-.12-.03-.2-.1-.08-.07-.08-.23 0-.42.22-.72.21-.29.63-.49.42-.19 1.03-.28.6-.09 1.39-.09.73 0 1.16.14.44.15.69.43.2-.14.42-.26.22-.12.47-.21.25-.09.55-.14.29-.05.64-.05.44 0 .85.09.4.09.72.3.31.21.5.54.19.33.19.82 0 .33-.11.63-.11.31-.33.55-.22.24-.54.38-.33.15-.75.15-.43 0-.67-.12-.24-.13-.37-.31t-.2-.4q-.06-.22-.13-.4-.07-.18-.18-.31-.12-.12-.34-.12-.23 0-.3.05-.08.06-.08.16 0 .13.06.34.05.2.05.5Z"></path><rect width="9.46" height="9.58" x="-4.73" y="-4.79" fill="none" rx="0" ry="0" transform="translate(315.95 331.1)"></rect><path fill="#767676" d="M337.57 335.58q-.87 0-1.6-.21-.73-.2-1.31-.56-.59-.35-1.03-.84-.43-.48-.73-1.04-.29-.56-.44-1.17-.14-.61-.14-1.21 0-.63.15-1.23.16-.61.48-1.15.32-.54.79-.99.48-.46 1.12-.79.64-.33 1.44-.51.81-.19 1.77-.19.85 0 1.56.19.71.19 1.28.52.57.34 1 .79.43.45.71.99.29.53.43 1.13.14.59.14 1.19 0 .62-.15 1.25-.15.62-.47 1.18-.31.57-.78 1.05-.46.48-1.09.84-.63.35-1.41.56-.78.2-1.72.2m.33-1.88q.24 0 .4-.14.17-.14.27-.41.1-.28.15-.66.04-.38.04-.86 0-.42-.01-.88 0-.47-.03-.92-.03-.45-.1-.86-.06-.41-.18-.72-.12-.32-.31-.5-.18-.19-.44-.19t-.44.15q-.18.14-.3.4-.11.25-.17.61-.05.36-.05.79 0 .41.01.87.02.47.06.94.04.46.13.9.08.43.21.76t.31.52q.19.2.45.2"></path><rect width="10.87" height="9.89" x="-5.43" y="-4.95" fill="none" rx="0" ry="0" transform="translate(338.25 331.13)"></rect><path fill="#767676" d="M362.72 327.18q0 .11-.08.21-.08.09-.21.18-.12.09-.28.17l-.3.18q-.14.08-.26.18-.12.09-.18.21l-3.75 7.03q-.05.08-.13.12-.09.05-.17.05-.17 0-.27-.17l-2-3.5-2.1 3.5q-.05.08-.13.12-.09.05-.18.05-.16 0-.26-.17l-3.69-6.6q-.15-.28-.34-.47-.19-.19-.37-.31t-.36-.2q-.17-.08-.3-.16-.13-.08-.21-.17-.08-.09-.08-.24 0-.41.23-.66.24-.25.7-.39.46-.14 1.12-.19.67-.05 1.53-.05.25 0 .59.02.34.03.7.08.36.05.7.14.35.09.62.23.27.15.44.35.17.2.17.47 0 .23-.1.36-.1.12-.22.2-.12.08-.22.15-.1.07-.1.2 0 .09.06.21l.95 2.02.94-2.02q.03-.05.03-.11 0-.13-.13-.23l-.29-.2q-.16-.11-.29-.25-.13-.13-.13-.34 0-.41.13-.66.12-.25.38-.39.26-.13.66-.18.4-.05.95-.05.41 0 .74.06.32.05.54.19.22.15.34.4.11.25.11.64-.26.21-.45.4-.16.17-.3.35-.14.17-.14.3 0 .05.01.07l1.14 2.02 1.03-2.02q.03-.05.03-.11 0-.12-.13-.22l-.29-.2q-.15-.11-.28-.24-.14-.14-.14-.35 0-.38.14-.63.14-.26.42-.4.27-.14.68-.2.41-.06.95-.06.38 0 .7.04.33.03.57.16.24.13.39.38.15.26.17.7"></path><rect width="15.65" height="9.61" x="-7.83" y="-4.8" fill="none" rx="0" ry="0" transform="translate(355.4 331.2)"></rect><path fill="#767676" d="M372.55 332.57q0 .3.08.47.08.17.21.26.12.08.26.11.13.04.26.07.12.04.2.11.08.07.08.23 0 .83-.87 1.2-.86.37-2.49.37-.8 0-1.4-.08-.61-.09-1.03-.29-.42-.19-.63-.49-.22-.29-.22-.71 0-.16.08-.23t.2-.11q.12-.03.26-.06t.25-.12q.12-.08.2-.24.08-.16.08-.46v-3.91q0-.29-.08-.45-.08-.16-.2-.25-.11-.08-.25-.11t-.26-.07q-.12-.03-.2-.1-.08-.07-.08-.23 0-.42.22-.72.21-.29.63-.49.42-.19 1.03-.28.6-.09 1.4-.09.71 0 1.14.12.42.12.66.27.27.18.37.39.38-.27.91-.49.45-.19 1.11-.35.65-.15 1.53-.15.81 0 1.39.2.58.2.99.54.41.34.66.79.24.45.38.94.14.5.18 1 .05.5.05.95v2.43q0 .3.08.48.08.17.21.26.12.09.26.13.15.03.27.07.13.04.21.11.08.07.08.23 0 .83-.86 1.2t-2.5.37q-.79 0-1.4-.08-.61-.09-1.02-.29-.42-.19-.64-.49-.21-.29-.21-.71 0-.16.08-.23t.2-.11q.13-.03.27-.06t.26-.12q.13-.08.21-.24.08-.16.08-.46v-3.12q0-.46-.07-.81-.07-.36-.24-.6-.16-.25-.43-.38t-.68-.13q-.25 0-.48.09-.23.08-.4.23-.16.15-.26.36t-.1.45Z"></path><rect width="13.76" height="9.7" x="-6.88" y="-4.85" fill="none" rx="0" ry="0" transform="translate(374.38 331.04)"></rect><path fill="#767676" d="M398.54 326.96q.17-.18.44-.4.28-.22.69-.41.41-.2.96-.33.54-.13 1.25-.13.82 0 1.41.21t.99.56q.41.35.65.81.25.46.38.96.13.5.18 1.01.04.51.04.96v2.32q0 .31.08.49.08.17.21.26.12.09.26.13.15.04.27.08.13.04.21.11.08.07.08.23 0 .83-.86 1.2t-2.5.37q-.79 0-1.4-.08-.6-.09-1.02-.29-.42-.19-.63-.49-.22-.29-.22-.71 0-.16.08-.23t.2-.11q.13-.04.27-.07.14-.04.26-.13.13-.08.21-.25.08-.17.08-.49v-2.98q0-.47-.07-.85-.06-.37-.23-.62-.16-.25-.43-.39-.28-.14-.69-.14-.21 0-.38.06-.18.06-.33.15-.15.08-.26.18-.12.09-.2.17v4.45q0 .3.08.47.08.17.2.26.12.08.26.11.14.04.26.07.13.04.21.11.08.07.08.23 0 .83-.87 1.2-.86.37-2.5.37-1.57 0-2.42-.37-.84-.37-.84-1.2 0-.16.07-.23.08-.07.2-.11.12-.03.26-.06.13-.03.26-.12.12-.08.19-.24.08-.16.08-.46v-8.23q0-.3-.08-.46-.07-.15-.19-.24-.13-.08-.26-.11-.14-.03-.26-.07-.12-.03-.2-.1-.07-.07-.07-.24 0-.83.84-1.2.85-.37 2.42-.37.8 0 1.25.08.46.08.7.28.23.19.3.52.06.33.06.83Z"></path><rect width="13.66" height="13.81" x="-6.83" y="-6.91" fill="none" rx="0" ry="0" transform="translate(400.31 328.99)"></rect><path fill="#767676" d="M416.19 335.58q-.87 0-1.6-.21-.73-.2-1.31-.56-.59-.35-1.03-.84-.44-.48-.73-1.04t-.44-1.17q-.14-.61-.14-1.21 0-.63.15-1.23.16-.61.48-1.15.32-.54.79-.99.48-.46 1.12-.79.64-.33 1.44-.51.81-.19 1.77-.19.85 0 1.56.19.71.19 1.28.52.57.34 1 .79.42.45.71.99.29.53.43 1.13.14.59.14 1.19 0 .62-.15 1.25-.16.62-.47 1.18-.31.57-.78 1.05-.47.48-1.09.84-.63.35-1.41.56-.79.2-1.72.2m.33-1.88q.24 0 .4-.14.17-.14.27-.41.1-.28.15-.66.04-.38.04-.86 0-.42-.01-.88 0-.47-.03-.92-.03-.45-.1-.86-.06-.41-.19-.72-.12-.32-.3-.5-.18-.19-.45-.19-.25 0-.43.15-.18.14-.3.4-.12.25-.17.61-.06.36-.06.79 0 .41.02.87.01.47.06.94.04.46.13.9.08.43.21.76t.31.52q.19.2.45.2"></path><rect width="10.87" height="9.89" x="-5.43" y="-4.95" fill="none" rx="0" ry="0" transform="translate(416.87 331.13)"></rect><path fill="#767676" d="M437.64 326.59q.12-.08.32-.23.21-.15.6-.3.4-.15 1.05-.26.65-.11 1.68-.11.76 0 1.34.18.57.19.97.5.41.32.67.74.27.43.42.93.16.49.21 1.03.06.53.06 1.06v.07q0 .87-.01 1.34v1q0 .3.08.48.08.17.2.26.12.09.26.13.15.03.27.07.12.04.2.11.08.07.08.23 0 .42-.21.71-.21.3-.61.49-.4.2-.99.29-.59.08-1.36.08-.73 0-1.31-.08-.57-.09-.97-.29-.4-.19-.6-.49-.21-.29-.21-.71 0-.16.06-.23.05-.07.13-.11l.18-.06q.1-.03.18-.12.08-.08.13-.24.06-.16.06-.46v-3.15q0-.44-.06-.79-.05-.36-.18-.6-.12-.24-.33-.37-.21-.13-.52-.13-.49 0-.7.31-.22.3-.22.79v3.86q0 .31.06.49.06.17.15.26t.2.13q.1.04.19.08.1.04.15.11.06.07.06.23 0 .42-.16.71-.17.3-.51.49-.35.2-.9.29-.54.08-1.31.08-.74 0-1.32-.08-.57-.09-.97-.29-.39-.19-.6-.49-.2-.29-.2-.71 0-.16.05-.23.06-.07.14-.11.08-.03.18-.06.09-.03.18-.12.08-.08.13-.24.06-.16.06-.46v-3.15q0-.89-.22-1.38-.22-.49-.77-.49-.22 0-.42.08-.2.08-.35.23-.16.15-.24.36-.09.2-.09.44v3.88q0 .3.06.47.06.17.16.26.09.08.21.11.11.04.21.07.09.04.15.11.07.07.07.23 0 .83-.84 1.2-.83.37-2.39.37-.75 0-1.34-.08-.6-.09-1-.29-.41-.19-.63-.49-.21-.29-.21-.71 0-.16.08-.23t.2-.11q.11-.03.25-.06t.26-.12q.11-.08.2-.24.08-.16.08-.46v-3.91q0-.29-.08-.45-.09-.16-.2-.25-.12-.08-.26-.11t-.25-.07q-.12-.03-.2-.1-.08-.07-.08-.23 0-.42.21-.72.21-.29.62-.49.4-.19.99-.28.59-.09 1.33-.09.33 0 .6.03.28.04.48.09.21.06.37.13.15.07.26.14.26.18.36.39.36-.27.86-.49.44-.19 1.06-.35.62-.15 1.46-.15.86 0 1.53.24.66.25 1.06.66"></path><rect width="19.59" height="9.7" x="-9.79" y="-4.85" fill="none" rx="0" ry="0" transform="translate(436.74 331.04)"></rect><path fill="#767676" d="M455.91 327.56q-.23 0-.44.11-.2.11-.35.33-.15.22-.24.56-.08.34-.08.81h2.33q0-.52-.08-.86-.08-.35-.23-.56-.15-.21-.39-.3-.23-.09-.52-.09m-.54-1.87q.98 0 1.77.29.78.3 1.34.81.55.51.85 1.2.29.69.29 1.49 0 .33-.09.52-.09.18-.26.27-.17.08-.41.11-.25.02-.57.02h-3.52q0 .8.16 1.31.17.5.46.78.29.27.7.37.41.1.91.1.27 0 .55-.05t.54-.13q.26-.08.48-.17.22-.09.37-.17.11-.06.22-.06.17 0 .27.14.09.14.09.32 0 .06-.01.11 0 .05-.03.1-.21.54-.57 1-.37.46-.89.81-.53.34-1.22.53-.68.19-1.54.19-.82 0-1.5-.2-.68-.19-1.22-.54-.55-.35-.96-.82-.41-.46-.68-1.02-.27-.55-.41-1.15-.13-.61-.13-1.22 0-.63.14-1.24t.42-1.16q.27-.55.69-1.01.42-.47.98-.81.55-.34 1.25-.53.69-.19 1.53-.19"></path><rect width="9.26" height="9.89" x="-4.63" y="-4.95" fill="none" rx="0" ry="0" transform="translate(455.49 331.13)"></rect><path fill="#767676" d="M275.718 3.27H168.011c-18.273 0-33.141 14.868-33.141 33.14v132.564c0 18.273 14.868 33.14 33.14 33.14h107.708a8.285 8.285 0 0 0 8.286-8.285V61.266a8.285 8.285 0 0 0-8.286-8.285H168.011c-9.137 0-16.57-7.434-16.57-16.57s7.433-16.57 16.57-16.57h107.707a8.285 8.285 0 0 0 0-16.571M168.011 69.55h99.422v115.993h-99.422c-9.137 0-16.57-7.434-16.57-16.57V65.067a32.892 32.892 0 0 0 16.57 4.484"></path><path fill="#767676" d="M275.718 28.125H168.011a8.285 8.285 0 0 0 0 16.57h107.707a8.285 8.285 0 0 0 0-16.57M313.002 3.27c-11.421 0-20.713 9.292-20.713 20.713v144.99c0 1.287.3 2.555.874 3.706l12.428 24.856a8.287 8.287 0 0 0 14.822 0l12.428-24.856a8.31 8.31 0 0 0 .874-3.705V23.983c0-11.421-9.292-20.713-20.713-20.713m0 16.57a4.147 4.147 0 0 1 4.142 4.143V36.41h-8.285V23.983a4.147 4.147 0 0 1 4.143-4.143m0 155.464-4.143-8.286V52.981h8.285v114.037zm-136.706-39.471h66.282a8.285 8.285 0 0 0 8.285-8.285V94.407a8.285 8.285 0 0 0-8.285-8.285h-66.282a8.285 8.285 0 0 0-8.285 8.285v33.14a8.285 8.285 0 0 0 8.285 8.286m8.285-33.14h49.711v16.57h-49.71zm-8.285 57.996h66.282a8.285 8.285 0 0 0 0-16.57h-66.282a8.285 8.285 0 0 0 0 16.57"></path></svg></svg>